{"title":"Kiss.Of.The.Dragon.2001.SWESUB.DVDRip.XviD.AC3.(5.1).-Zen_Bud","uid":5585583,"size":1471490290,"categoryP":"video","categoryS":"movies","magnet":"?xt=urn:btih:e6c512327bb0c8a52792ad5ec9fbb30c5a563739&amp;dn=Kiss.Of.The.Dragon.2001.SWESUB.DVDRip.XviD.AC3.%285.1%29.-Zen_Bud&amp;tr=udp%3A%2F%2Ftracker.openbittorrent.com%3A80&amp;tr=udp%3A%2F%2Fopen.demonii.com%3A1337&amp;tr=udp%3A%2F%2Ftracker.coppersurfer.tk%3A6969&amp;tr=udp%3A%2F%2Fexodus.desync.com%3A6969","seeders":2,"leechers":0,"uploader":"Zen_Bud","files":-1,"time":1274691521,"description":"General\nComplete name                    : Kiss.Of.The.Dragon.avi\nFormat                           : AVI\nFormat/Info                      : Audio Video Interleave\nFile size                        : 1.37 GiB\nDuration                         : 1h 38mn\nOverall bit rate                 : 1 997 Kbps\n\nVideo\nID                               : 0\nFormat                           : MPEG-4 Visual\nCodec ID/Hint                    : XviD\nDuration                         : 1h 38mn\nBit rate                         : 1 538 Kbps\nWidth                            : 720 pixels\nHeight                           : 496 pixels\nDisplay aspect ratio !!           : 2.065 !!!!!!!!\nChroma subsampling               : 4:2:0\nBit depth                        : 8 bits\nScan type                        : Progressive\nBits/(Pixel*Frame)               : 0.172\nStream size                      : 1.06 GiB (77%)\nWriting library                  : XviD 1.1.2 (UTC 2006-11-01)\n\nAudio\nID                               : 1\nFormat                           : AC-3\nDuration                         : 1h 38mn\nBit rate                         : 448 Kbps\nChannel(s)                       : 6 channels\nChannel positions                : Front: L C R, Side: L R, LFE\nSampling rate                    : 48.0 KHz\nStream size                      : 315 MiB (22%)\n\n\n","torrent":{"xt":"urn:btih:e6c512327bb0c8a52792ad5ec9fbb30c5a563739","amp;dn":"Kiss.Of.The.Dragon.2001.SWESUB.DVDRip.XviD.AC3.%285.1%29.-Zen_Bud","amp;tr":["udp%3A%2F%2Ftracker.openbittorrent.com%3A80","udp%3A%2F%2Fopen.demonii.com%3A1337","udp%3A%2F%2Ftracker.coppersurfer.tk%3A6969","udp%3A%2F%2Fexodus.desync.com%3A6969"],"infoHash":"e6c512327bb0c8a52792ad5ec9fbb30c5a563739","infoHashBuffer":{"type":"Buffer","data":[230,197,18,50,123,176,200,165,39,146,173,94,201,251,179,12,90,86,55,57]},"announce":[],"urlList":[]}}